<svg width="170" height="29" viewBox="0 0 170 29" fill="none" xmlns="http://www.w3.org/2000/svg">
<path fill-rule="evenodd" clip-rule="evenodd" d="M121.89 26.71C131.41 20.03 136.45 17.42 147.74 17.27L145.34 20.46C145.16 20.7935 144.871 21.055 144.522 21.2007C144.172 21.3463 143.783 21.3673 143.42 21.26C135.33 21.19 129.73 21.77 119.97 28.59L121.89 26.71Z" fill="url(#paint0_linear_262_2595)"/>
<path fill-rule="evenodd" clip-rule="evenodd" d="M122.399 26.1601C131.699 18.0601 139.599 14.4001 146.399 13.6101C147.039 12.8901 149.149 10.1901 149.789 9.32007C134.359 11.8101 127.259 21.5701 122.399 26.1601Z" fill="url(#paint1_linear_262_2595)"/>
<path fill-rule="evenodd" clip-rule="evenodd" d="M122.37 26.2001C122.24 26.3101 121.93 26.6601 121.64 26.9301C121.542 27.0149 121.451 27.1086 121.37 27.2101C124.157 25.0814 127.099 23.1628 130.17 21.4701C134.289 19.3843 138.75 18.0597 143.34 17.5601C143.9 16.9801 145.62 14.7801 146.43 13.6201C135.78 15.0801 128.77 20.7501 122.37 26.2001Z" fill="url(#paint2_linear_262_2595)"/>
<path fill-rule="evenodd" clip-rule="evenodd" d="M145.09 20.83C145.18 20.46 145.42 20.17 144.3 19.52C142.85 18.72 142.38 19.08 142.69 18.29C143 17.5 145.9 16.47 148.14 17.2C147.045 18.3427 146.026 19.5553 145.09 20.83Z" fill="url(#paint3_linear_262_2595)"/>
<path fill-rule="evenodd" clip-rule="evenodd" d="M153.501 8.42006C151.261 8.64006 149.901 9.21006 149.021 10.2301L146.021 14.1801C146.731 13.6001 148.701 13.2801 150.861 13.2801H151.421C151.741 13.2801 152.061 13.2101 152.421 13.2101C155.541 13.1401 159.78 12.7001 162.34 9.87006L165.991 4.87006L166.4 4.31006C163.08 8.37006 155.821 8.05006 153.501 8.42006Z" fill="url(#paint4_linear_262_2595)"/>
<path fill-rule="evenodd" clip-rule="evenodd" d="M159.101 3.84C158.101 3.99 155.981 3.92 154.221 5.01C152.254 6.43563 150.526 8.16371 149.101 10.13C150.101 9.13 151.501 8.78 153.421 8.56C155.341 8.34 158.071 8.42 160.061 8.12C161.302 7.98019 162.499 7.57688 163.571 6.93706C164.644 6.29723 165.568 5.43566 166.281 4.41L169.511 0C166.071 3.26 162.301 3.41 159.101 3.84Z" fill="url(#paint5_linear_262_2595)"/>
<path fill-rule="evenodd" clip-rule="evenodd" d="M155.26 12.77C152.94 13.06 150.26 13.14 149.5 13.21C148.22 13.21 146.45 13.64 145.98 14.21C144.795 15.492 143.695 16.8517 142.69 18.28C143.58 17.48 146.54 17.55 150.14 17.41C152.054 17.3191 153.931 16.8489 155.661 16.0266C157.392 15.2043 158.941 14.0463 160.22 12.62L162.41 9.69995C161 11.52 158.38 12.33 155.26 12.77Z" fill="url(#paint6_linear_262_2595)"/>
<path fill-rule="evenodd" clip-rule="evenodd" d="M29.6098 22.4201V20.6901H22.7998V17.4401H28.9198V15.7301H22.7998V12.7801H29.2498V11.0701H18.2598V22.4201H29.6098Z" fill="white"/>
<path fill-rule="evenodd" clip-rule="evenodd" d="M36.2504 22.4199V12.7799H38.9204C39.7016 12.718 40.4831 12.8959 41.1604 13.2899C41.4137 13.4485 41.6232 13.6678 41.7699 13.9281C41.9166 14.1884 41.9959 14.4812 42.0004 14.7799C42.007 15.0844 41.9293 15.3847 41.7757 15.6477C41.6222 15.9107 41.3988 16.126 41.1304 16.2699C40.0709 16.8019 38.8731 16.9939 37.7004 16.8199L37.1404 16.7499L41.6604 22.4199H46.9004L42.6104 17.6899C43.5762 17.5876 44.5115 17.2917 45.3604 16.8199C45.7596 16.57 46.0915 16.226 46.3268 15.818C46.5622 15.4101 46.6939 14.9506 46.7104 14.4799C46.6864 13.93 46.5151 13.3967 46.2142 12.9358C45.9134 12.4748 45.4942 12.1032 45.0004 11.8599C43.4499 11.1975 41.7604 10.9262 40.0804 11.0699H31.6904V22.4199H36.2504Z" fill="white"/>
<path fill-rule="evenodd" clip-rule="evenodd" d="M72.8904 22.4201V17.6301H79.0203V15.9201H72.8904V12.7801H79.5203V11.0701H68.3604V22.4201H72.8904Z" fill="white"/>
<path fill-rule="evenodd" clip-rule="evenodd" d="M85.7192 11.0701H81.1592V22.4201H92.4092V20.6901H85.7192V11.0701Z" fill="white"/>
<path fill-rule="evenodd" clip-rule="evenodd" d="M111.149 12.7801H116.039V22.4201H120.599V12.7801H125.489V11.0701H111.149V12.7801Z" fill="white"/>
<path fill-rule="evenodd" clip-rule="evenodd" d="M101.49 10.74C98.9886 10.6802 96.5234 11.3434 94.3898 12.65C93.7028 13.0992 93.1324 13.7051 92.7256 14.418C92.3188 15.1308 92.0871 15.9301 92.0498 16.75C92.0895 17.5681 92.3222 18.3651 92.7289 19.0759C93.1356 19.7868 93.7047 20.3913 94.3898 20.84C96.5548 22.0784 99.0057 22.7298 101.5 22.7298C103.994 22.7298 106.445 22.0784 108.61 20.84C109.29 20.3885 109.854 19.7827 110.255 19.0719C110.656 18.3612 110.884 17.5656 110.92 16.75C110.887 15.9326 110.66 15.1347 110.258 14.422C109.857 13.7092 109.292 13.1019 108.61 12.65C106.465 11.3532 103.996 10.6909 101.49 10.74ZM101.49 21.36C100.841 21.3986 100.192 21.2849 99.5943 21.0279C98.997 20.7709 98.4681 20.3779 98.0498 19.88C97.3571 18.9877 97.0028 17.8788 97.0498 16.75C96.9986 15.6177 97.3532 14.5043 98.0498 13.61C98.4905 13.1373 99.0238 12.7604 99.6165 12.5026C100.209 12.2449 100.849 12.1119 101.495 12.1119C102.141 12.1119 102.78 12.2449 103.373 12.5026C103.966 12.7604 104.499 13.1373 104.94 13.61C105.636 14.5043 105.991 15.6177 105.94 16.75C105.987 17.8788 105.633 18.9877 104.94 19.88C104.52 20.3786 103.989 20.7722 103.39 21.0291C102.791 21.2861 102.14 21.3994 101.49 21.36Z" fill="white"/>
<path fill-rule="evenodd" clip-rule="evenodd" d="M57.3499 10.74C54.8488 10.6802 52.3835 11.3434 50.2499 12.65C49.5659 13.1015 48.9983 13.7082 48.5934 14.4207C48.1885 15.1332 47.9577 15.9314 47.9199 16.75C47.9601 17.5668 48.1919 18.3626 48.5967 19.0732C49.0015 19.7837 49.5678 20.389 50.2499 20.84C52.3898 22.1298 54.852 22.7852 57.3499 22.73C59.8576 22.7882 62.3303 22.1327 64.4799 20.84C65.16 20.3885 65.7237 19.7827 66.1252 19.0719C66.5266 18.3612 66.7544 17.5656 66.7899 16.75C66.7567 15.9326 66.53 15.1347 66.1285 14.422C65.7269 13.7092 65.1619 13.1019 64.4799 12.65C62.3317 11.3519 59.8594 10.6896 57.3499 10.74ZM57.3499 21.36C56.7024 21.3978 56.055 21.2837 55.4595 21.0267C54.8639 20.7697 54.3367 20.3771 53.9199 19.88C53.2272 18.9877 52.8729 17.8788 52.9199 16.75C52.8688 15.6177 53.2234 14.5043 53.9199 13.61C54.331 13.105 54.8566 12.7055 55.4532 12.4446C56.0498 12.1837 56.7001 12.069 57.3499 12.11C58.0042 12.0682 58.6591 12.1824 59.2606 12.4432C59.8622 12.704 60.3932 13.1039 60.8099 13.61C61.5065 14.5043 61.8611 15.6177 61.8099 16.75C61.8569 17.8788 61.5027 18.9877 60.8099 19.88C60.388 20.3788 59.8556 20.7723 59.255 21.0292C58.6543 21.2862 58.002 21.3994 57.3499 21.36Z" fill="white"/>
<path fill-rule="evenodd" clip-rule="evenodd" d="M2.27 22.4201L4.06 19.1201H10.37L12.31 22.4201H17.41L10.5 11.0701H6.27L0 22.4201H2.27ZM4.89 17.5901L7.04 13.5901H7.1L9.43 17.5901H4.89Z" fill="white"/>
<defs>
<linearGradient id="paint0_linear_262_2595" x1="126.27" y1="15.44" x2="138.31" y2="27.33" gradientUnits="userSpaceOnUse">
<stop stop-color="#C00D0D"/>
<stop offset="0.3" stop-color="#E30613"/>
<stop offset="0.33" stop-color="#E51925"/>
<stop offset="0.4" stop-color="#EA4A53"/>
<stop offset="0.5" stop-color="#F3979D"/>
<stop offset="0.53" stop-color="#F5ACB0"/>
<stop offset="0.57" stop-color="#F07A81"/>
<stop offset="0.61" stop-color="#EB5059"/>
<stop offset="0.65" stop-color="#E8303B"/>
<stop offset="0.68" stop-color="#E51925"/>
<stop offset="0.72" stop-color="#E40B18"/>
<stop offset="0.75" stop-color="#E30613"/>
<stop offset="1" stop-color="#C00D0D"/>
</linearGradient>
<linearGradient id="paint1_linear_262_2595" x1="121.059" y1="6.85007" x2="151.279" y2="28.8101" gradientUnits="userSpaceOnUse">
<stop stop-color="white"/>
<stop offset="0.34" stop-color="white"/>
<stop offset="0.54" stop-color="white"/>
<stop offset="0.91" stop-color="#D3DAF0"/>
<stop offset="1" stop-color="#D3DAF0"/>
</linearGradient>
<linearGradient id="paint2_linear_262_2595" x1="126.47" y1="13.0801" x2="143.1" y2="29.5001" gradientUnits="userSpaceOnUse">
<stop stop-color="#004A93"/>
<stop offset="0.13" stop-color="#004A93"/>
<stop offset="0.2" stop-color="#215EA2"/>
<stop offset="0.32" stop-color="#5980BB"/>
<stop offset="0.41" stop-color="#7C95CA"/>
<stop offset="0.46" stop-color="#899DD0"/>
<stop offset="0.48" stop-color="#7490C7"/>
<stop offset="0.56" stop-color="#366BAB"/>
<stop offset="0.61" stop-color="#0F539A"/>
<stop offset="0.64" stop-color="#004A93"/>
<stop offset="0.92" stop-color="#004A93"/>
</linearGradient>
<linearGradient id="paint3_linear_262_2595" x1="142.44" y1="16.3" x2="148.81" y2="20.43" gradientUnits="userSpaceOnUse">
<stop stop-color="#C00D0D"/>
<stop offset="0.5" stop-color="#E30613"/>
<stop offset="1" stop-color="#F6B2B6"/>
</linearGradient>
<linearGradient id="paint4_linear_262_2595" x1="147.711" y1="2.19006" x2="165.241" y2="16.77" gradientUnits="userSpaceOnUse">
<stop stop-color="#D3DDF2"/>
<stop offset="0.07" stop-color="#D3DDF2"/>
<stop offset="0.12" stop-color="#BBCCE7"/>
<stop offset="0.21" stop-color="#7DA1CB"/>
<stop offset="0.34" stop-color="#1A5C9F"/>
<stop offset="0.37" stop-color="#004A93"/>
<stop offset="0.43" stop-color="#085097"/>
<stop offset="0.52" stop-color="#1E5FA1"/>
<stop offset="0.63" stop-color="#4379B1"/>
<stop offset="0.75" stop-color="#759CC8"/>
<stop offset="0.89" stop-color="#B5C8E5"/>
<stop offset="0.95" stop-color="#D3DDF2"/>
<stop offset="1" stop-color="#D3DDF2"/>
</linearGradient>
<linearGradient id="paint5_linear_262_2595" x1="151.141" y1="-1.73" x2="168.061" y2="12.34" gradientUnits="userSpaceOnUse">
<stop stop-color="white"/>
<stop offset="0.17" stop-color="white"/>
<stop offset="0.24" stop-color="#F9FAFD"/>
<stop offset="0.33" stop-color="#E8EBF8"/>
<stop offset="0.35" stop-color="#E3E7F6"/>
<stop offset="0.43" stop-color="#EDEFF9"/>
<stop offset="0.57" stop-color="#FAFBFE"/>
<stop offset="0.7" stop-color="white"/>
<stop offset="1" stop-color="white"/>
</linearGradient>
<linearGradient id="paint6_linear_262_2595" x1="144.88" y1="7.61995" x2="159.85" y2="20.06" gradientUnits="userSpaceOnUse">
<stop stop-color="#F6B2B6"/>
<stop offset="0.06" stop-color="#F6B2B6"/>
<stop offset="0.11" stop-color="#F07D83"/>
<stop offset="0.16" stop-color="#EA4A53"/>
<stop offset="0.21" stop-color="#E62530"/>
<stop offset="0.25" stop-color="#E40E1B"/>
<stop offset="0.28" stop-color="#E30613"/>
<stop offset="0.41" stop-color="#CD0A0F"/>
<stop offset="0.52" stop-color="#C00D0D"/>
<stop offset="0.59" stop-color="#CD0A0F"/>
<stop offset="0.69" stop-color="#E30613"/>
<stop offset="0.89" stop-color="#F4A8A7"/>
<stop offset="1" stop-color="#F6B2B6"/>
</linearGradient>
</defs>
</svg>
